<svg xmlns="http://www.w3.org/2000/svg" version="1.1" xmlns:xlink="http://www.w3.org/1999/xlink" width="512" height="512" x="0" y="0" viewBox="0 0 64 64" style="enable-background:new 0 0 512 512" xml:space="preserve" class=""><g><path fill="#e6e6e6" d="M63 26v16H44a3 3 0 0 1 0-6 3 3 0 0 0 3-3V15h16v5l-4 3z" opacity="1" data-original="#e6e6e6"></path><path fill="#cccccc" d="M41 39v-9h3a3 3 0 0 1 0 6 3 3 0 0 0-3 3z" opacity="1" data-original="#cccccc"></path><path fill="#f2f2f2" d="M47 15v18a3 3 0 0 0-3-3H24V3h20a3 3 0 0 1 3 3z" opacity="1" data-original="#f2f2f2" class=""></path><path fill="#b18264" d="M24 30v3.64a6.567 6.567 0 0 0-3-.64h-2V1h5z" opacity="1" data-original="#b18264" class=""></path><path fill="#e09b8d" d="M32.5 37a3.5 3.5 0 0 1 3.5 3.5 3.517 3.517 0 0 1-3.5 3.5H26v-7z" opacity="1" data-original="#e09b8d"></path><path fill="#d1897d" d="M32.5 44a3.5 3.5 0 0 1 3.5 3.5 3.517 3.517 0 0 1-3.5 3.5H26v-7z" opacity="1" data-original="#d1897d"></path><path fill="#e09b8d" d="M26 51h6.5c2.5 0 3.5 1.34 3.5 3a3 3 0 0 1-3 3h-7a3 3 0 0 1 0-6z" opacity="1" data-original="#e09b8d"></path><path fill="#d1897d" d="M30 57a3 3 0 0 1 0 6h-8a3 3 0 0 1 0-6z" opacity="1" data-original="#d1897d"></path><path fill="#e09b8d" d="M19 44v16a3 3 0 0 0 3 3h-2a7.989 7.989 0 0 1-8-8c4.14-1.179 7-4 7-11z" opacity="1" data-original="#e09b8d"></path><path fill="#b18264" d="M21.05 48.951A6.958 6.958 0 0 0 26 51a3 3 0 0 0 0 6h-4a3 3 0 0 0-3 3V44a6.958 6.958 0 0 0 2.05 4.951z" opacity="1" data-original="#b18264" class=""></path><path fill="#f4baa6" d="M24 33.641A3.56 3.56 0 0 1 26 37v14a7 7 0 0 1-7-7c0 7-2.86 9.82-7 11a7.989 7.989 0 0 0 8 8h-7.61A7.955 7.955 0 0 1 5 58H0V38h5a7.975 7.975 0 0 1 7.39-5H21a6.567 6.567 0 0 1 3 .641z" opacity="1" data-original="#f4baa6"></path><g fill="#252525"><path d="M64 20v-5a1 1 0 0 0-1-1H48V6a4 4 0 0 0-4-4H25V1a1 1 0 0 0-1-1h-5a1 1 0 0 0-1 1v31h-5.61a8.984 8.984 0 0 0-8.04 5H1a1 1 0 0 0 0 2h4a1 1 0 0 0 .929-.631 6.875 6.875 0 0 1 2.56-3.17 6.958 6.958 0 0 1 3.9-1.2H21a5.609 5.609 0 0 1 2.544.529A2.577 2.577 0 0 1 25 37v12.919A6 6 0 0 1 20 44v-4a1 1 0 0 0-2 0v4c0 7.271-3.172 9.154-6.274 10.038a1 1 0 0 0 .548 1.924A9.823 9.823 0 0 0 18 52.074V60a3.959 3.959 0 0 0 .556 2H12.39a6.93 6.93 0 0 1-6.462-4.372A1 1 0 0 0 5 57H1a1 1 0 0 0 0 2h3.351a8.912 8.912 0 0 0 8.039 5H30a3.975 3.975 0 0 0 3.421-6.041A3.967 3.967 0 0 0 37 54a3.811 3.811 0 0 0-1.518-3.159A3.652 3.652 0 0 0 37 47.5a4.475 4.475 0 0 0-1.708-3.5A3.925 3.925 0 0 0 37 40.5a4.505 4.505 0 0 0-4.5-4.5h-5.6a4.423 4.423 0 0 0-1.9-2.925V31h15v8a4 4 0 0 0 4 4h19a1 1 0 0 0 1-1V26a1 1 0 0 0-.4-.8L60.666 23l2.934-2.2a1 1 0 0 0 .4-.8zM20 32V2h3v30.23a8.679 8.679 0 0 0-2-.23zm2.978 19.41a3.9 3.9 0 0 0-.422 4.59H22a3.956 3.956 0 0 0-2 .554V49.28a7.21 7.21 0 0 0 2.978 2.131zm8.435 10A1.983 1.983 0 0 1 30 62h-8a2 2 0 0 1 0-4h8a2 2 0 0 1 1.413 3.413zM35 54a2 2 0 0 1-2 2h-7a2 2 0 0 1 0-4h6.5c1.682 0 2.5.655 2.5 2zm0-6.5a2.516 2.516 0 0 1-2.5 2.5H27v-5h5.5a2.5 2.5 0 0 1 2.5 2.5zm0-7a2.516 2.516 0 0 1-2.5 2.5H27v-5h5.5a2.5 2.5 0 0 1 2.5 2.5zM25 4h19a2 2 0 0 1 2 2v23.555A3.958 3.958 0 0 0 44 29H25zm19 27a2 2 0 0 1 0 4 3.956 3.956 0 0 0-2 .554V31zm18-11.5-3.6 2.7a1 1 0 0 0 0 1.6l3.6 2.7V41H44a2 2 0 0 1 0-4 4 4 0 0 0 4-4V16h14z" fill="#252525" opacity="1" data-original="#252525"></path><path d="M36 7h-7a1 1 0 0 0 0 2h7a1 1 0 1 0 0-2z" fill="#252525" opacity="1" data-original="#252525"></path><circle cx="40" cy="8.001" r="1" fill="#252525" opacity="1" data-original="#252525"></circle></g></g></svg>