<svg xmlns="http://www.w3.org/2000/svg" version="1.1" xmlns:xlink="http://www.w3.org/1999/xlink" xmlns:svgjs="http://svgjs.com/svgjs" width="512" height="512" x="0" y="0" viewBox="0 0 512 512" style="enable-background:new 0 0 512 512" xml:space="preserve" class=""><g><linearGradient id="a" x1="256" x2="256" y1="515.55" y2="8.96" gradientTransform="matrix(1 0 0 -1 0 512)" gradientUnits="userSpaceOnUse"><stop offset="0" stop-color="#43bcff"></stop><stop offset="1" stop-color="#0149ed"></stop></linearGradient><path fill="url(#a)" d="m364.7 256 138.8-138.8c11.3-11.3 11.4-29.7 0-41L435.9 8.5c-11.3-11.3-29.7-11.4-41 0L256 147.3 117.2 8.5c-11.3-11.3-29.7-11.4-41 0L8.5 76.1c-11.3 11.3-11.4 29.7 0 41L147.3 256 8.5 394.8c-11.3 11.3-11.4 29.7 0 41l67.6 67.6c11.3 11.3 29.7 11.4 41 0L256 364.7l138.8 138.8c11.3 11.3 29.7 11.4 41 0l67.6-67.6c11.3-11.3 11.4-29.7 0-41z" data-original="url(#a)" class=""></path></g></svg>