<svg xmlns="http://www.w3.org/2000/svg" version="1.1" xmlns:xlink="http://www.w3.org/1999/xlink" width="512" height="512" x="0" y="0" viewBox="0 0 512 512" style="enable-background:new 0 0 512 512" xml:space="preserve" class=""><g><path fill="#fe6c5f" d="M226.1 0h59.8c11 0 19.9 8.9 19.9 19.9v305.9c0 11-8.9 19.9-19.9 19.9h-59.8c-11 0-19.9-8.9-19.9-19.9V19.9c0-11 8.9-19.9 19.9-19.9z" opacity="1" data-original="#fe6c5f"></path><circle cx="256" cy="454.4" r="57.6" fill="#fe6c5f" opacity="1" data-original="#fe6c5f"></circle><g fill="#fd4760"><path d="M256 396.7V512c31.8.4 58-25 58.4-56.9s-25-58-56.9-58.4H256zM305.8 325.8V19.9c0-11-8.9-19.9-19.9-19.9H256v345.7h29.9c11 0 19.9-8.9 19.9-19.9z" fill="#fd4760" opacity="1" data-original="#fd4760"></path></g></g></svg>